<svg xmlns="http://www.w3.org/2000/svg" viewBox="0 0 1024 768"><g text-anchor="middle"><g font-family="Brandmark1 Bold Color" font-size="72" font-weight="700" style="line-height:1;font-variant-ligatures:normal;text-align:center"><path fill="#a3eaae" d="M327.2052184 359.18807h-21.8298509V343.8456h60.1340168v15.34247h-22.1384735v64.9735372h-16.1656924V359.18807z" aria-label="T" class="c1"/><g aria-label="A"><path fill="#a3eaae" d="M408.0340236 343.8456h-13.9313317l-30.4272969 80.3160072h17.1132247l20.2546058-55.6757344 20.4291659 55.6757344h17.112524z" class="c1"/><path fill="#4fca6a" d="m401.1847669 424.1616072-12.7836995-19.7907424h25.4581756z" class="c3"/></g><path fill="#a3eaae" d="m450.4824725 348.993743 16.1664074-5.148143v80.3160072h-16.1664074V348.993743z" aria-label="I" class="c1"/><path fill="#a3eaae" d="m486.7007975 348.993743 16.1657067-5.148143v64.9735372h36.1424063v15.3417836h-52.308113V348.993743z" aria-label="L" class="c1"/><g aria-label="K"><path fill="#a3eaae" d="m596.8170752 343.8456-28.0588594 33.8975637V343.8456h-16.1657067v80.3160072h16.1657067V401.600011l49.0745541-57.754411z" class="c1"/><path fill="#4fca6a" d="M603.4060433 404.3708934h-20.0752552l14.3828256 19.7907138h20.151274z" class="c3"/></g><path fill="#a3eaae" d="m628.2493475 348.993743 16.1664074-5.148143v80.3160072h-16.1664074V348.993743z" aria-label="I" class="c1"/><path fill="#a3eaae" d="M680.3258434 359.18807h-21.8298509V343.8456h60.1340168v15.34247h-22.1384735v64.9735372h-16.1656924V359.18807z" aria-label="T" class="c1"/></g></g></svg>