<svg xmlns="http://www.w3.org/2000/svg" viewBox="0 0 413.255 80.316"><path fill="#a3eaae" d="M21.825 15.342H-.005V0h60.134v15.342H37.996v64.974H21.825V15.342Z" data-name="Path 1"/><path fill="#a3eaae" d="M102.659 0H88.725L58.298 80.316h17.113L95.666 24.64l20.429 55.676h17.112Z" data-name="Path 2"/><path fill="#4fca6a" d="M95.81 80.316 83.025 60.525h25.458Z" data-name="Path 3"/><path fill="#a3eaae" d="M145.107 5.148 161.273 0v80.316h-16.166Z" data-name="Path 4"/><path fill="#a3eaae" d="M181.325 5.148 197.491 0v64.974h36.142v15.342h-52.308Z" data-name="Path 5"/><path fill="#a3eaae" d="m291.442 0-28.059 33.9V0h-16.166v80.316h16.166V57.754L312.458 0Z" data-name="Path 6"/><path fill="#4fca6a" d="M298.031 60.525h-20.075l14.383 19.791h20.151Z" data-name="Path 7"/><path fill="#a3eaae" d="M322.874 5.148 339.04 0v80.316h-16.166Z" data-name="Path 8"/><path fill="#a3eaae" d="M374.951 15.342h-21.826V0h60.13v15.342h-22.138v64.974h-16.166V15.342Z" data-name="Path 9"/></svg>